<svg width="18" height="20" viewBox="0 0 18 20" fill="none" xmlns="http://www.w3.org/2000/svg">
<path d="M8.99996 0.4C7.0904 0.4 5.25906 1.15857 3.9088 2.50883C2.55853 3.85909 1.79996 5.69044 1.79996 7.6V11.9032L0.951564 12.7516C0.783793 12.9194 0.669545 13.1332 0.623264 13.366C0.576983 13.5987 0.600746 13.8399 0.691551 14.0592C0.782355 14.2784 0.936122 14.4658 1.13341 14.5977C1.33071 14.7295 1.56266 14.7999 1.79996 14.8H16.2C16.4373 14.7999 16.6692 14.7295 16.8665 14.5977C17.0638 14.4658 17.2176 14.2784 17.3084 14.0592C17.3992 13.8399 17.4229 13.5987 17.3767 13.366C17.3304 13.1332 17.2161 12.9194 17.0484 12.7516L16.2 11.9032V7.6C16.2 5.69044 15.4414 3.85909 14.0911 2.50883C12.7409 1.15857 10.9095 0.4 8.99996 0.4ZM8.99996 19.6C8.04518 19.6 7.12951 19.2207 6.45438 18.5456C5.77925 17.8705 5.39996 16.9548 5.39996 16H12.6C12.6 16.9548 12.2207 17.8705 11.5455 18.5456C10.8704 19.2207 9.95474 19.6 8.99996 19.6Z" fill="currentColor"/>
</svg>
