<svg width="20" height="20" viewBox="0 0 20 20" fill="none" xmlns="http://www.w3.org/2000/svg">
<path fill-rule="evenodd" clip-rule="evenodd" d="M7.6 2.8C6.32696 2.8 5.10606 3.30571 4.20589 4.20589C3.30571 5.10606 2.8 6.32696 2.8 7.6C2.8 8.87304 3.30571 10.0939 4.20589 10.9941C5.10606 11.8943 6.32696 12.4 7.6 12.4C8.87304 12.4 10.0939 11.8943 10.9941 10.9941C11.8943 10.0939 12.4 8.87304 12.4 7.6C12.4 6.32696 11.8943 5.10606 10.9941 4.20589C10.0939 3.30571 8.87304 2.8 7.6 2.8ZM0.400002 7.6C0.399857 6.46685 0.667172 5.34966 1.18021 4.33929C1.69324 3.32893 2.43751 2.45392 3.35248 1.78543C4.26744 1.11695 5.32728 0.673856 6.44578 0.492201C7.56428 0.310546 8.70986 0.395455 9.78936 0.740022C10.8689 1.08459 11.8518 1.67908 12.6582 2.47516C13.4646 3.27123 14.0718 4.2464 14.4302 5.32136C14.7887 6.39632 14.8884 7.54071 14.7212 8.66146C14.554 9.78222 14.1246 10.8477 13.468 11.7712L19.2484 17.5516C19.467 17.7779 19.5879 18.081 19.5852 18.3957C19.5825 18.7103 19.4563 19.0113 19.2338 19.2338C19.0113 19.4563 18.7103 19.5825 18.3957 19.5852C18.081 19.5879 17.7779 19.467 17.5516 19.2484L11.7724 13.4692C10.6952 14.2351 9.42802 14.6898 8.10961 14.7833C6.79121 14.8769 5.47249 14.6057 4.29796 13.9996C3.12343 13.3934 2.13843 12.4756 1.45087 11.3468C0.763314 10.218 0.399745 8.92172 0.400002 7.6Z" fill="currentColor"/>
</svg>
