<svg xmlns="http://www.w3.org/2000/svg" xmlns:xlink="http://www.w3.org/1999/xlink"><defs><symbol fill="none" viewBox="0 0 20 20" id="icon-account"><path fill-rule="evenodd" clip-rule="evenodd" d="M10 9a3 3 0 100-6 3 3 0 000 6zm-7 9a7 7 0 1114 0H3z" fill="currentColor" /></symbol><symbol fill="none" viewBox="0 0 13 12" id="icon-arrow-down"><path d="M12.8 6l-1.058-1.058L7.55 9.127V0h-1.5v9.127L1.865 4.935.8 6l6 6 6-6z" fill="currentColor" /></symbol><symbol fill="none" viewBox="0 0 20 20" id="icon-button-export"><path fill-rule="evenodd" clip-rule="evenodd" d="M3 17a1 1 0 011-1h12a1 1 0 010 2H4a1 1 0 01-1-1zm3.293-7.707a1 1 0 011.414 0L9 10.586V3a1 1 0 012 0v7.586l1.293-1.293a1 1 0 111.414 1.414l-3 3a1 1 0 01-1.414 0l-3-3a1 1 0 010-1.414z" fill="currentColor" /></symbol><symbol fill="none" viewBox="0 0 20 20" id="icon-button-import"><path fill-rule="evenodd" clip-rule="evenodd" d="M3 17a1 1 0 011-1h12a1 1 0 010 2H4a1 1 0 01-1-1zM6.293 6.707a1 1 0 010-1.414l3-3a1 1 0 011.414 0l3 3a1 1 0 01-1.414 1.414L11 5.414V13a1 1 0 01-2 0V5.414L7.707 6.707a1 1 0 01-1.414 0z" fill="currentColor" /></symbol><symbol fill="none" viewBox="0 0 21 20" id="icon-button-link"><path d="M16.333 15.833H4.667V4.167H10.5V2.5H4.667C3.742 2.5 3 3.25 3 4.167v11.666c0 .917.742 1.667 1.667 1.667h11.666c.917 0 1.667-.75 1.667-1.667V10h-1.667v5.833zM12.167 2.5v1.667h2.991l-8.191 8.191 1.175 1.175 8.191-8.191v2.991H18V2.5h-5.833z" fill="currentColor" /></symbol><symbol fill="none" viewBox="0 0 8 12" id="icon-button-previous"><path d="M7.41 1.41L6 0 0 6l6 6 1.41-1.41L2.83 6l4.58-4.59z" fill="currentColor" /></symbol><symbol fill="none" viewBox="0 0 10 5" id="icon-cursor-down"><path d="M0 0l5 5 5-5H0z" fill="currentColor" /></symbol><symbol fill="none" viewBox="0 0 22 18" id="icon-customers"><path d="M9.8 4.2a3.6 3.6 0 11-7.2 0 3.6 3.6 0 017.2 0zm9.6 0a3.6 3.6 0 11-7.2 0 3.6 3.6 0 017.2 0zm-4.884 13.2a8.6 8.6 0 00.084-1.2 8.365 8.365 0 00-1.8-5.196 6 6 0 019 5.196v1.2h-7.284zM6.2 10.2a6 6 0 016 6v1.2H.2v-1.2a6 6 0 016-6z" fill="currentColor" /></symbol><symbol fill="none" viewBox="0 0 20 20" id="icon-dashboard"><path d="M2 11a1 1 0 011-1h2a1 1 0 011 1v5a1 1 0 01-1 1H3a1 1 0 01-1-1v-5zm6-4a1 1 0 011-1h2a1 1 0 011 1v9a1 1 0 01-1 1H9a1 1 0 01-1-1V7zm6-3a1 1 0 011-1h2a1 1 0 011 1v12a1 1 0 01-1 1h-2a1 1 0 01-1-1V4z" fill="currentColor" /></symbol><symbol fill="none" viewBox="0 0 16 16" id="icon-error"><path fill-rule="evenodd" clip-rule="evenodd" d="M8 16A8 8 0 108-.001 8 8 0 008 16zM6.707 5.293a1 1 0 00-1.414 1.414L6.586 8 5.293 9.293a1 1 0 101.414 1.414L8 9.414l1.293 1.293a1 1 0 001.414-1.414L9.414 8l1.293-1.293a1 1 0 00-1.414-1.414L8 6.586 6.707 5.293z" fill="currentColor" /></symbol><symbol fill="none" viewBox="0 0 20 20" id="icon-login"><path fill-rule="evenodd" clip-rule="evenodd" d="M5 9V7a5 5 0 1110 0v2a2 2 0 012 2v5a2 2 0 01-2 2H5a2 2 0 01-2-2v-5a2 2 0 012-2zm8-2v2H7V7a3 3 0 116 0z" fill="currentColor" /></symbol><symbol fill="none" viewBox="0 0 20 20" id="icon-products"><path fill-rule="evenodd" clip-rule="evenodd" d="M10 2a4 4 0 00-4 4v1H5a1 1 0 00-.994.89l-1 9A1 1 0 004 18h12a1 1 0 00.994-1.11l-1-9A1 1 0 0015 7h-1V6a4 4 0 00-4-4zm2 5V6a2 2 0 10-4 0v1h4zm-6 3a1 1 0 112 0 1 1 0 01-2 0zm7-1a1 1 0 100 2 1 1 0 000-2z" fill="currentColor" /></symbol><symbol fill="none" viewBox="0 0 20 20" id="icon-register"><path d="M8 9a3 3 0 100-6 3 3 0 000 6zm0 2a6 6 0 016 6H2a6 6 0 016-6zm8-4a1 1 0 00-2 0v1h-1a1 1 0 100 2h1v1a1 1 0 002 0v-1h1a1 1 0 100-2h-1V7z" fill="currentColor" /></symbol><symbol fill="none" viewBox="0 0 18 20" id="icon-ring"><path d="M9 .4a7.2 7.2 0 00-7.2 7.2v4.303l-.848.849A1.2 1.2 0 001.8 14.8h14.4a1.2 1.2 0 00.848-2.048l-.848-.849V7.6A7.2 7.2 0 009 .4zm0 19.2A3.6 3.6 0 015.4 16h7.2A3.6 3.6 0 019 19.6z" fill="currentColor" /></symbol><symbol fill="none" viewBox="0 0 20 20" id="icon-search"><path fill-rule="evenodd" clip-rule="evenodd" d="M7.6 2.8a4.8 4.8 0 100 9.6 4.8 4.8 0 000-9.6zM.4 7.6a7.2 7.2 0 1113.068 4.171l5.78 5.78a1.2 1.2 0 01-1.696 1.697l-5.78-5.779A7.2 7.2 0 01.4 7.6z" fill="currentColor" /></symbol><symbol fill="none" viewBox="0 0 20 20" id="icon-settings"><path d="M15.95 10.783c.033-.25.05-.508.05-.783a4.81 4.81 0 00-.058-.783L17.633 7.9a.409.409 0 00.1-.508l-1.6-2.767c-.1-.183-.308-.242-.491-.183l-1.992.8a5.885 5.885 0 00-1.35-.784L12 2.342A.403.403 0 0011.6 2H8.4c-.2 0-.358.142-.392.342l-.3 2.116c-.491.2-.941.475-1.35.784l-1.991-.8a.398.398 0 00-.492.183L2.283 7.392c-.1.175-.066.391.1.508l1.692 1.317A4.89 4.89 0 004 10c0 .258.017.533.058.783L2.367 12.1a.409.409 0 00-.1.508l1.6 2.767c.1.183.308.242.491.183l1.992-.8c.417.317.858.584 1.35.784l.3 2.116c.042.2.2.342.4.342h3.2c.2 0 .367-.142.392-.342l.3-2.116c.491-.2.941-.467 1.35-.784l1.991.8c.184.067.392 0 .492-.183l1.6-2.767c.1-.183.058-.391-.1-.508l-1.675-1.317zM10 13c-1.65 0-3-1.35-3-3s1.35-3 3-3 3 1.35 3 3-1.35 3-3 3z" fill="currentColor" /></symbol></defs></svg>